<?xml version="1.0" encoding="UTF-8"?>
<!DOCTYPE svg PUBLIC "-//W3C//DTD SVG 1.1//EN" "http://www.w3.org/Graphics/SVG/1.1/DTD/svg11.dtd">
<svg xmlns="http://www.w3.org/2000/svg" version="1.1" width="455px" height="560px" style="shape-rendering:geometricPrecision; text-rendering:geometricPrecision; image-rendering:optimizeQuality; fill-rule:evenodd; clip-rule:evenodd" xmlns:xlink="http://www.w3.org/1999/xlink">
<g><path style="opacity:0.975" fill="#434244" d="M 34.5,-0.5 C 35.1667,-0.5 35.8333,-0.5 36.5,-0.5C 75.3017,36.7999 114.302,73.9666 153.5,111C 169.823,115.198 186.323,118.365 203,120.5C 204,119.833 205,119.167 206,118.5C 210.58,109.672 215.413,101.005 220.5,92.5C 222.258,93.1279 223.758,94.1279 225,95.5C 232.186,104.348 239.686,112.848 247.5,121C 281.236,119.253 314.236,113.253 346.5,103C 370.205,95.3046 393.539,86.8046 416.5,77.5C 428.881,133.016 441.548,188.35 454.5,243.5C 454.5,245.167 454.5,246.833 454.5,248.5C 444.493,250.224 434.493,252.057 424.5,254C 403.25,261.587 390.084,276.42 385,298.5C 380.951,316.63 384.617,332.963 396,347.5C 403.456,355.126 410.956,362.459 418.5,369.5C 390.026,435.467 346.36,488.967 287.5,530C 271.103,539.859 254.77,549.692 238.5,559.5C 236.5,559.5 234.5,559.5 232.5,559.5C 163.659,525.498 107.659,476.665 64.5,413C 52.1545,407.207 39.1545,404.874 25.5,406C 15.8442,402.887 9.67754,396.387 7,386.5C 4.44265,374.045 1.94265,361.712 -0.5,349.5C -0.5,347.167 -0.5,344.833 -0.5,342.5C 24.0095,322.824 46.0095,300.657 65.5,276C 57.8199,268.698 48.8199,263.365 38.5,260C 31.921,258.237 25.2544,256.903 18.5,256C 17.8922,254.769 17.5589,253.436 17.5,252C 26.04,193.883 35.04,135.883 44.5,78C 43.3969,74.9607 41.8969,72.1274 40,69.5C 28.5545,55.2304 17.7211,40.5638 7.5,25.5C 8.89741,22.5935 10.8974,20.0935 13.5,18C 20.9476,12.2865 27.9476,6.11988 34.5,-0.5 Z"/></g>
<g><path style="opacity:1" fill="#d1d1d3" d="M 57.5,54.5 C 87.9504,81.1156 117.617,108.616 146.5,137C 160.351,149.685 174.351,162.185 188.5,174.5C 193.752,171.291 198.918,167.958 204,164.5C 211.178,151.477 217.845,138.143 224,124.5C 224.718,123.549 225.551,123.383 226.5,124C 234.167,134.333 241.833,144.667 249.5,155C 289.35,177.525 325.517,205.025 358,237.5C 366.096,246.259 373.429,255.593 380,265.5C 380.667,267.167 380.667,268.833 380,270.5C 359.211,309.557 365.545,343.557 399,372.5C 365.068,448.104 310.902,504.604 236.5,542C 235.167,542.667 233.833,542.667 232.5,542C 204.015,528.152 177.681,511.152 153.5,491C 152.446,489.612 152.28,488.112 153,486.5C 175.041,450.25 197.208,414.083 219.5,378C 252.558,376.879 280.058,364.045 302,339.5C 312.928,325.715 317.595,310.048 316,292.5C 314.785,287.066 312.285,282.399 308.5,278.5C 302.453,319.377 278.787,342.21 237.5,347C 184.126,351.741 132.459,363.741 82.5,383C 79.024,387.479 74.6907,390.813 69.5,393C 66.5,393.667 63.5,393.667 60.5,393C 54.7363,391.285 49.0697,389.285 43.5,387C 37.4017,388.707 32.5683,386.874 29,381.5C 24.6214,371.604 22.2881,361.271 22,350.5C 25.6818,346.651 29.5151,342.984 33.5,339.5C 35.817,343.946 37.6504,348.613 39,353.5C 47.5369,345.223 50.8702,335.223 49,323.5C 80.8205,290.354 111.154,256.021 140,220.5C 148.415,212.244 157.249,204.578 166.5,197.5C 129.735,150.08 93.4015,102.414 57.5,54.5 Z"/></g>
<g><path style="opacity:1" fill="#085281" d="M 56.5,96.5 C 60.3101,96.379 63.4768,97.7124 66,100.5C 89.6076,131.76 112.774,163.26 135.5,195C 135.375,196.627 134.875,198.127 134,199.5C 115.249,220.247 97.2486,241.58 80,263.5C 79.1074,264.081 78.1074,264.415 77,264.5C 70.2054,260.393 63.372,256.227 56.5,252C 49.3197,248.94 41.9864,246.273 34.5,244C 33.9032,242.938 33.5698,241.772 33.5,240.5C 40.5259,192.346 48.1926,144.346 56.5,96.5 Z"/></g>
<g><path style="opacity:1" fill="#085281" d="M 399.5,98.5 C 402.394,98.0423 404.894,98.709 407,100.5C 417.011,144.875 427.177,189.209 437.5,233.5C 437.43,234.772 437.097,235.938 436.5,237C 421.923,238.078 408.923,243.078 397.5,252C 395.833,252.667 394.167,252.667 392.5,252C 377.615,231.446 360.282,213.113 340.5,197C 316.555,177.69 291.222,160.356 264.5,145C 261.02,142.703 259.02,139.536 258.5,135.5C 307.481,130.277 354.481,117.943 399.5,98.5 Z"/></g>
<g><path style="opacity:1" fill="#0b5280" d="M 175.5,131.5 C 182.861,131.885 190.194,132.552 197.5,133.5C 195.642,138.879 192.976,143.879 189.5,148.5C 184.848,144.349 180.348,140.015 176,135.5C 175.51,134.207 175.343,132.873 175.5,131.5 Z"/></g>
<g><path style="opacity:1" fill="#464446" d="M 171.5,211.5 C 182.826,210.327 187.992,215.327 187,226.5C 181.82,233.843 174.654,237.676 165.5,238C 160.167,238.667 154.833,238.667 149.5,238C 146.881,237.849 144.547,237.015 142.5,235.5C 149.227,223.758 158.894,215.758 171.5,211.5 Z"/></g>
<g><path style="opacity:1" fill="#085281" d="M 177.5,372.5 C 184.833,372.5 192.167,372.5 199.5,372.5C 199.201,376.105 198.035,379.439 196,382.5C 177.041,412.916 158.208,443.416 139.5,474C 137.833,474.667 136.167,474.667 134.5,474C 115.482,456.321 98.6489,436.821 84,415.5C 82.627,413.305 82.2937,410.971 83,408.5C 86.6167,404.761 90.1167,400.928 93.5,397C 120.638,385.449 148.638,377.283 177.5,372.5 Z"/></g>
</svg>
