<?xml version="1.0" encoding="UTF-8"?>
<!DOCTYPE svg PUBLIC "-//W3C//DTD SVG 1.1//EN" "http://www.w3.org/Graphics/SVG/1.1/DTD/svg11.dtd">
<svg xmlns="http://www.w3.org/2000/svg" version="1.1" width="476px" height="567px" style="shape-rendering:geometricPrecision; text-rendering:geometricPrecision; image-rendering:optimizeQuality; fill-rule:evenodd; clip-rule:evenodd" xmlns:xlink="http://www.w3.org/1999/xlink">
<g><path style="opacity:1" fill="#fefefe" d="M -0.5,-0.5 C 158.167,-0.5 316.833,-0.5 475.5,-0.5C 475.5,188.5 475.5,377.5 475.5,566.5C 316.833,566.5 158.167,566.5 -0.5,566.5C -0.5,377.5 -0.5,188.5 -0.5,-0.5 Z"/></g>
<g><path style="opacity:1" fill="#3a3a3a" d="M 36.5,3.5 C 37.552,3.35055 38.552,3.51722 39.5,4C 77.5302,41.0313 115.864,77.6979 154.5,114C 156.957,115.562 159.624,116.562 162.5,117C 177.4,119.951 192.4,121.951 207.5,123C 212.3,113.892 217.467,105.058 223,96.5C 231.487,105.655 239.987,114.821 248.5,124C 263.912,123.844 279.245,122.51 294.5,120C 333.991,111.944 371.991,99.9437 408.5,84C 411.72,82.6476 415.053,81.8143 418.5,81.5C 429.345,130.882 440.512,180.215 452,229.5C 453.498,236.811 454.664,244.144 455.5,251.5C 445.869,253.096 436.202,254.596 426.5,256C 399.187,266.613 385.521,286.613 385.5,316C 385,329.496 389.167,341.329 398,351.5C 405.322,358.822 412.488,365.988 419.5,373C 382.118,458.549 321.451,521.715 237.5,562.5C 167.09,528.926 110.09,479.76 66.5,415C 60.5239,413.016 54.5239,411.016 48.5,409C 36.3743,411.726 25.5409,409.226 16,401.5C 12.863,396.892 10.5297,391.892 9,386.5C 5.86301,373.217 3.52967,359.883 2,346.5C 26.5484,326.285 48.715,303.785 68.5,279C 67.1793,276.346 65.1793,274.346 62.5,273C 49.3686,264.633 35.0353,259.8 19.5,258.5C 28.5361,199.676 37.5361,140.843 46.5,82C 46.5056,79.7002 46.0056,77.5336 45,75.5C 33.1667,59.8333 21.3333,44.1667 9.5,28.5C 18.2196,19.7772 27.2196,11.4439 36.5,3.5 Z"/></g>
<g><path style="opacity:1" fill="#d1d1d1" d="M 59.5,57.5 C 62.9378,59.7589 66.2711,62.2589 69.5,65C 109.081,103.418 149.414,140.918 190.5,177.5C 197.038,174.13 202.872,169.797 208,164.5C 213.728,152.044 219.728,139.711 226,127.5C 226.718,126.549 227.551,126.383 228.5,127C 236.786,138.287 245.452,149.287 254.5,160C 294.037,182.52 329.87,210.02 362,242.5C 369.047,250.545 375.713,258.878 382,267.5C 382.667,269.5 382.667,271.5 382,273.5C 361.397,312.551 367.73,346.551 401,375.5C 367.012,451.159 312.845,507.659 238.5,545C 237.167,545.667 235.833,545.667 234.5,545C 205.955,531.24 179.622,514.24 155.5,494C 154.446,492.612 154.28,491.112 155,489.5C 177.041,453.25 199.208,417.083 221.5,381C 253.997,379.845 281.163,367.345 303,343.5C 315.611,328.669 320.277,311.669 317,292.5C 315.337,288.504 313.171,284.837 310.5,281.5C 304.682,321.484 281.682,344.317 241.5,350C 187.739,354.441 135.739,366.441 85.5,386C 81.4518,389.716 77.1185,393.05 72.5,396C 68.8333,396.667 65.1667,396.667 61.5,396C 56.1667,394 50.8333,392 45.5,390C 36.6111,391.151 30.7778,387.317 28,378.5C 26.0379,371.102 24.5379,363.602 23.5,356C 23.6251,354.373 24.1251,352.873 25,351.5C 28.3276,348.342 31.8276,345.342 35.5,342.5C 37.5483,346.304 39.215,350.304 40.5,354.5C 41.2739,355.711 42.1072,355.711 43,354.5C 50.0219,346.412 52.6886,337.079 51,326.5C 82.7917,293.38 113.125,259.047 142,223.5C 150.415,215.244 159.249,207.578 168.5,200.5C 136.191,158.357 103.691,116.357 71,74.5C 66.6514,69.1216 62.8181,63.4549 59.5,57.5 Z"/></g>
<g><path style="opacity:1" fill="#004b98" d="M 58.5,100.5 C 60.5273,100.338 62.5273,100.505 64.5,101C 66,102.5 67.5,104 69,105.5C 92.3341,136.185 115.167,167.185 137.5,198.5C 119.176,220.328 101.01,242.328 83,264.5C 82.044,265.894 80.7106,266.561 79,266.5C 72.4792,262.818 65.9792,258.985 59.5,255C 52.3112,251.866 44.9778,249.033 37.5,246.5C 37.1667,245.167 36.8333,243.833 36.5,242.5C 43.3269,195.04 50.6602,147.706 58.5,100.5 Z"/></g>
<g><path style="opacity:1" fill="#004b98" d="M 403.5,101.5 C 406.238,100.965 408.072,101.965 409,104.5C 418.942,148.487 428.775,192.487 438.5,236.5C 438.43,237.772 438.097,238.938 437.5,240C 423.781,241.173 411.447,245.84 400.5,254C 398.5,254.667 396.5,254.667 394.5,254C 380.275,235.438 364.275,218.438 346.5,203C 321.321,182.919 294.987,164.585 267.5,148C 263.971,145.669 261.971,142.503 261.5,138.5C 310.784,133.062 358.117,120.728 403.5,101.5 Z"/></g>
<g><path style="opacity:1" fill="#004b98" d="M 178.5,134.5 C 185.083,135.185 191.583,136.185 198,137.5C 197.017,142.461 194.683,146.794 191,150.5C 185.645,146.646 181.145,141.979 177.5,136.5C 177.863,135.817 178.196,135.15 178.5,134.5 Z"/></g>
<g><path style="opacity:1" fill="#3b3b3b" d="M 173.5,214.5 C 184.846,213.348 190.013,218.348 189,229.5C 184.996,235.924 179.162,239.424 171.5,240C 162.921,240.816 154.421,240.649 146,239.5C 145.333,238.5 145.333,237.5 146,236.5C 153.001,226.319 162.168,218.986 173.5,214.5 Z"/></g>
<g><path style="opacity:1" fill="#004b98" d="M 174.5,376.5 C 183.167,376.5 191.833,376.5 200.5,376.5C 200.201,380.105 199.035,383.439 197,386.5C 178.749,416 160.749,445.667 143,475.5C 140.716,477.984 138.216,478.151 135.5,476C 118.133,459.049 102.3,440.883 88,421.5C 86.0863,418.702 85.0863,415.702 85,412.5C 88.2755,408.799 91.4422,404.965 94.5,401C 120.303,389.72 146.97,381.554 174.5,376.5 Z"/></g>
</svg>
