<?xml version="1.0" encoding="UTF-8"?>
<!DOCTYPE svg PUBLIC "-//W3C//DTD SVG 1.1//EN" "http://www.w3.org/Graphics/SVG/1.1/DTD/svg11.dtd">
<svg xmlns="http://www.w3.org/2000/svg" version="1.1" width="476px" height="640px" style="shape-rendering:geometricPrecision; text-rendering:geometricPrecision; image-rendering:optimizeQuality; fill-rule:evenodd; clip-rule:evenodd" xmlns:xlink="http://www.w3.org/1999/xlink">
<g><path style="opacity:1" fill="#fefefe" d="M -0.5,-0.5 C 158.167,-0.5 316.833,-0.5 475.5,-0.5C 475.5,212.833 475.5,426.167 475.5,639.5C 316.833,639.5 158.167,639.5 -0.5,639.5C -0.5,426.167 -0.5,212.833 -0.5,-0.5 Z"/></g>
<g><path style="opacity:1" fill="#3a3a3a" d="M 36.5,40.5 C 37.552,40.3505 38.552,40.5172 39.5,41C 77.5302,78.0313 115.864,114.698 154.5,151C 156.957,152.562 159.624,153.562 162.5,154C 177.4,156.951 192.4,158.951 207.5,160C 212.3,150.892 217.467,142.058 223,133.5C 231.487,142.655 239.987,151.821 248.5,161C 263.912,160.844 279.245,159.51 294.5,157C 333.991,148.944 371.991,136.944 408.5,121C 411.72,119.648 415.053,118.814 418.5,118.5C 429.345,167.882 440.512,217.215 452,266.5C 453.498,273.811 454.664,281.144 455.5,288.5C 445.869,290.096 436.202,291.596 426.5,293C 399.187,303.613 385.521,323.613 385.5,353C 385,366.496 389.167,378.329 398,388.5C 405.322,395.822 412.488,402.988 419.5,410C 382.118,495.549 321.451,558.715 237.5,599.5C 167.09,565.926 110.09,516.76 66.5,452C 60.5239,450.016 54.5239,448.016 48.5,446C 36.3743,448.726 25.5409,446.226 16,438.5C 12.863,433.892 10.5297,428.892 9,423.5C 5.86301,410.217 3.52967,396.883 2,383.5C 26.5484,363.285 48.715,340.785 68.5,316C 67.1793,313.346 65.1793,311.346 62.5,310C 49.3686,301.633 35.0353,296.8 19.5,295.5C 28.5361,236.676 37.5361,177.843 46.5,119C 46.5056,116.7 46.0056,114.534 45,112.5C 33.1667,96.8333 21.3333,81.1667 9.5,65.5C 18.2196,56.7772 27.2196,48.4439 36.5,40.5 Z"/></g>
<g><path style="opacity:1" fill="#d1d1d1" d="M 59.5,94.5 C 62.9378,96.7589 66.2711,99.2589 69.5,102C 109.081,140.418 149.414,177.918 190.5,214.5C 197.038,211.13 202.872,206.797 208,201.5C 213.728,189.044 219.728,176.711 226,164.5C 226.718,163.549 227.551,163.383 228.5,164C 236.786,175.287 245.452,186.287 254.5,197C 294.037,219.52 329.87,247.02 362,279.5C 369.047,287.545 375.713,295.878 382,304.5C 382.667,306.5 382.667,308.5 382,310.5C 361.397,349.551 367.73,383.551 401,412.5C 367.012,488.159 312.845,544.659 238.5,582C 237.167,582.667 235.833,582.667 234.5,582C 205.955,568.24 179.622,551.24 155.5,531C 154.446,529.612 154.28,528.112 155,526.5C 177.041,490.25 199.208,454.083 221.5,418C 253.997,416.845 281.163,404.345 303,380.5C 315.611,365.669 320.277,348.669 317,329.5C 315.337,325.504 313.171,321.837 310.5,318.5C 304.682,358.484 281.682,381.317 241.5,387C 187.739,391.441 135.739,403.441 85.5,423C 81.4518,426.716 77.1185,430.05 72.5,433C 68.8333,433.667 65.1667,433.667 61.5,433C 56.1667,431 50.8333,429 45.5,427C 36.6111,428.151 30.7778,424.317 28,415.5C 26.0379,408.102 24.5379,400.602 23.5,393C 23.6251,391.373 24.1251,389.873 25,388.5C 28.3276,385.342 31.8276,382.342 35.5,379.5C 37.5483,383.304 39.215,387.304 40.5,391.5C 41.2739,392.711 42.1072,392.711 43,391.5C 50.0219,383.412 52.6886,374.079 51,363.5C 82.7917,330.38 113.125,296.047 142,260.5C 150.415,252.244 159.249,244.578 168.5,237.5C 136.191,195.357 103.691,153.357 71,111.5C 66.6514,106.122 62.8181,100.455 59.5,94.5 Z"/></g>
<g><path style="opacity:1" fill="#004b98" d="M 58.5,137.5 C 60.5273,137.338 62.5273,137.505 64.5,138C 66,139.5 67.5,141 69,142.5C 92.3341,173.185 115.167,204.185 137.5,235.5C 119.176,257.328 101.01,279.328 83,301.5C 82.044,302.894 80.7106,303.561 79,303.5C 72.4792,299.818 65.9792,295.985 59.5,292C 52.3112,288.866 44.9778,286.033 37.5,283.5C 37.1667,282.167 36.8333,280.833 36.5,279.5C 43.3269,232.04 50.6602,184.706 58.5,137.5 Z"/></g>
<g><path style="opacity:1" fill="#004b98" d="M 403.5,138.5 C 406.238,137.965 408.072,138.965 409,141.5C 418.942,185.487 428.775,229.487 438.5,273.5C 438.43,274.772 438.097,275.938 437.5,277C 423.781,278.173 411.447,282.84 400.5,291C 398.5,291.667 396.5,291.667 394.5,291C 380.275,272.438 364.275,255.438 346.5,240C 321.321,219.919 294.987,201.585 267.5,185C 263.971,182.669 261.971,179.503 261.5,175.5C 310.784,170.062 358.117,157.728 403.5,138.5 Z"/></g>
<g><path style="opacity:1" fill="#004b98" d="M 178.5,171.5 C 185.083,172.185 191.583,173.185 198,174.5C 197.017,179.461 194.683,183.794 191,187.5C 185.645,183.646 181.145,178.979 177.5,173.5C 177.863,172.817 178.196,172.15 178.5,171.5 Z"/></g>
<g><path style="opacity:1" fill="#3b3b3b" d="M 173.5,251.5 C 184.846,250.348 190.013,255.348 189,266.5C 184.996,272.924 179.162,276.424 171.5,277C 162.921,277.816 154.421,277.649 146,276.5C 145.333,275.5 145.333,274.5 146,273.5C 153.001,263.319 162.168,255.986 173.5,251.5 Z"/></g>
<g><path style="opacity:1" fill="#004b98" d="M 174.5,413.5 C 183.167,413.5 191.833,413.5 200.5,413.5C 200.201,417.105 199.035,420.439 197,423.5C 178.749,453 160.749,482.667 143,512.5C 140.716,514.984 138.216,515.151 135.5,513C 118.133,496.049 102.3,477.883 88,458.5C 86.0863,455.702 85.0863,452.702 85,449.5C 88.2755,445.799 91.4422,441.965 94.5,438C 120.303,426.72 146.97,418.554 174.5,413.5 Z"/></g>
</svg>
