<?xml version="1.0" encoding="UTF-8"?>
<!DOCTYPE svg PUBLIC "-//W3C//DTD SVG 1.1//EN" "http://www.w3.org/Graphics/SVG/1.1/DTD/svg11.dtd">
<svg xmlns="http://www.w3.org/2000/svg" version="1.1" width="840px" height="640px" style="shape-rendering:geometricPrecision; text-rendering:geometricPrecision; image-rendering:optimizeQuality; fill-rule:evenodd; clip-rule:evenodd" xmlns:xlink="http://www.w3.org/1999/xlink">
<g><path style="opacity:1" fill="#fefefe" d="M -0.5,-0.5 C 279.5,-0.5 559.5,-0.5 839.5,-0.5C 839.5,212.833 839.5,426.167 839.5,639.5C 559.5,639.5 279.5,639.5 -0.5,639.5C -0.5,426.167 -0.5,212.833 -0.5,-0.5 Z"/></g>
<g><path style="opacity:1" fill="#3a3a3a" d="M 226.5,40.5 C 227.552,40.3505 228.552,40.5172 229.5,41C 267.53,78.0313 305.864,114.698 344.5,151C 346.957,152.562 349.624,153.562 352.5,154C 367.4,156.951 382.4,158.951 397.5,160C 402.3,150.892 407.467,142.058 413,133.5C 421.487,142.655 429.987,151.821 438.5,161C 453.912,160.844 469.245,159.51 484.5,157C 523.991,148.944 561.991,136.944 598.5,121C 601.72,119.648 605.053,118.814 608.5,118.5C 619.345,167.882 630.512,217.215 642,266.5C 643.498,273.811 644.664,281.144 645.5,288.5C 635.869,290.096 626.202,291.596 616.5,293C 589.187,303.613 575.521,323.613 575.5,353C 575,366.496 579.167,378.329 588,388.5C 595.322,395.822 602.488,402.988 609.5,410C 572.118,495.549 511.451,558.715 427.5,599.5C 357.09,565.926 300.09,516.76 256.5,452C 250.524,450.016 244.524,448.016 238.5,446C 226.374,448.726 215.541,446.226 206,438.5C 202.863,433.892 200.53,428.892 199,423.5C 195.863,410.217 193.53,396.883 192,383.5C 216.548,363.285 238.715,340.785 258.5,316C 257.179,313.346 255.179,311.346 252.5,310C 239.369,301.633 225.035,296.8 209.5,295.5C 218.536,236.676 227.536,177.843 236.5,119C 236.506,116.7 236.006,114.534 235,112.5C 223.167,96.8333 211.333,81.1667 199.5,65.5C 208.22,56.7772 217.22,48.4439 226.5,40.5 Z"/></g>
<g><path style="opacity:1" fill="#d1d1d1" d="M 249.5,94.5 C 252.938,96.7589 256.271,99.2589 259.5,102C 299.081,140.418 339.414,177.918 380.5,214.5C 387.038,211.13 392.872,206.797 398,201.5C 403.728,189.044 409.728,176.711 416,164.5C 416.718,163.549 417.551,163.383 418.5,164C 426.786,175.287 435.452,186.287 444.5,197C 484.037,219.52 519.87,247.02 552,279.5C 559.047,287.545 565.713,295.878 572,304.5C 572.667,306.5 572.667,308.5 572,310.5C 551.397,349.551 557.73,383.551 591,412.5C 557.012,488.159 502.845,544.659 428.5,582C 427.167,582.667 425.833,582.667 424.5,582C 395.955,568.24 369.622,551.24 345.5,531C 344.446,529.612 344.28,528.112 345,526.5C 367.041,490.25 389.208,454.083 411.5,418C 443.997,416.845 471.163,404.345 493,380.5C 505.611,365.669 510.277,348.669 507,329.5C 505.337,325.504 503.171,321.837 500.5,318.5C 494.682,358.484 471.682,381.317 431.5,387C 377.739,391.441 325.739,403.441 275.5,423C 271.452,426.716 267.118,430.05 262.5,433C 258.833,433.667 255.167,433.667 251.5,433C 246.167,431 240.833,429 235.5,427C 226.611,428.151 220.778,424.317 218,415.5C 216.038,408.102 214.538,400.602 213.5,393C 213.625,391.373 214.125,389.873 215,388.5C 218.328,385.342 221.828,382.342 225.5,379.5C 227.548,383.304 229.215,387.304 230.5,391.5C 231.274,392.711 232.107,392.711 233,391.5C 240.022,383.412 242.689,374.079 241,363.5C 272.792,330.38 303.125,296.047 332,260.5C 340.415,252.244 349.249,244.578 358.5,237.5C 326.191,195.357 293.691,153.357 261,111.5C 256.651,106.122 252.818,100.455 249.5,94.5 Z"/></g>
<g><path style="opacity:1" fill="#004b98" d="M 248.5,137.5 C 250.527,137.338 252.527,137.505 254.5,138C 256,139.5 257.5,141 259,142.5C 282.334,173.185 305.167,204.185 327.5,235.5C 309.176,257.328 291.01,279.328 273,301.5C 272.044,302.894 270.711,303.561 269,303.5C 262.479,299.818 255.979,295.985 249.5,292C 242.311,288.866 234.978,286.033 227.5,283.5C 227.167,282.167 226.833,280.833 226.5,279.5C 233.327,232.04 240.66,184.706 248.5,137.5 Z"/></g>
<g><path style="opacity:1" fill="#004b98" d="M 593.5,138.5 C 596.238,137.965 598.072,138.965 599,141.5C 608.942,185.487 618.775,229.487 628.5,273.5C 628.43,274.772 628.097,275.938 627.5,277C 613.781,278.173 601.447,282.84 590.5,291C 588.5,291.667 586.5,291.667 584.5,291C 570.275,272.438 554.275,255.438 536.5,240C 511.321,219.919 484.987,201.585 457.5,185C 453.971,182.669 451.971,179.503 451.5,175.5C 500.784,170.062 548.117,157.728 593.5,138.5 Z"/></g>
<g><path style="opacity:1" fill="#004b98" d="M 368.5,171.5 C 375.083,172.185 381.583,173.185 388,174.5C 387.017,179.461 384.683,183.794 381,187.5C 375.645,183.646 371.145,178.979 367.5,173.5C 367.863,172.817 368.196,172.15 368.5,171.5 Z"/></g>
<g><path style="opacity:1" fill="#3b3b3b" d="M 363.5,251.5 C 374.846,250.348 380.013,255.348 379,266.5C 374.996,272.924 369.162,276.424 361.5,277C 352.921,277.816 344.421,277.649 336,276.5C 335.333,275.5 335.333,274.5 336,273.5C 343.001,263.319 352.168,255.986 363.5,251.5 Z"/></g>
<g><path style="opacity:1" fill="#004b98" d="M 364.5,413.5 C 373.167,413.5 381.833,413.5 390.5,413.5C 390.201,417.105 389.035,420.439 387,423.5C 368.749,453 350.749,482.667 333,512.5C 330.716,514.984 328.216,515.151 325.5,513C 308.133,496.049 292.3,477.883 278,458.5C 276.086,455.702 275.086,452.702 275,449.5C 278.276,445.799 281.442,441.965 284.5,438C 310.303,426.72 336.97,418.554 364.5,413.5 Z"/></g>
</svg>
