<?xml version="1.0" encoding="UTF-8"?>
<!DOCTYPE svg PUBLIC "-//W3C//DTD SVG 1.1//EN" "http://www.w3.org/Graphics/SVG/1.1/DTD/svg11.dtd">
<svg xmlns="http://www.w3.org/2000/svg" version="1.1" width="2230px" height="1254px" style="shape-rendering:geometricPrecision; text-rendering:geometricPrecision; image-rendering:optimizeQuality; fill-rule:evenodd; clip-rule:evenodd" xmlns:xlink="http://www.w3.org/1999/xlink">
<g><path style="opacity:1" fill="#fefefe" d="M -0.5,-0.5 C 742.833,-0.5 1486.17,-0.5 2229.5,-0.5C 2229.5,417.5 2229.5,835.5 2229.5,1253.5C 1486.17,1253.5 742.833,1253.5 -0.5,1253.5C -0.5,835.5 -0.5,417.5 -0.5,-0.5 Z"/></g>
<g><path style="opacity:1" fill="#225a9e" d="M 557.5,48.5 C 598.895,47.7007 640.229,48.8673 681.5,52C 699.085,55.3698 716.752,58.3698 734.5,61C 816.05,78.9535 889.05,113.62 953.5,165C 970,180.833 986.5,196.667 1003,212.5C 1013.66,225.494 1024.66,238.161 1036,250.5C 1044.37,262.86 1053.04,275.194 1062,287.5C 1118.61,382.167 1147.27,485.167 1148,596.5C 1150.75,655.261 1147.08,713.594 1137,771.5C 1117.79,866.563 1077.79,951.23 1017,1025.5C 975.21,1073.66 926.71,1113.16 871.5,1144C 859.219,1149.93 846.886,1155.76 834.5,1161.5C 817.934,1168.31 801.267,1174.81 784.5,1181C 760.446,1187.24 736.279,1193.07 712,1198.5C 677.73,1204.11 643.23,1206.44 608.5,1205.5C 568.626,1206.36 528.96,1204.03 489.5,1198.5C 453.156,1191.89 417.49,1182.72 382.5,1171C 367.67,1164.51 352.837,1158.01 338,1151.5C 324.22,1143.03 310.053,1135.19 295.5,1128C 281.343,1117.28 266.677,1107.28 251.5,1098C 249.126,1095.96 247.126,1093.63 245.5,1091C 244.5,1090.67 243.5,1090.33 242.5,1090C 234.463,1082.29 226.13,1074.96 217.5,1068C 143.842,996.748 94.1755,911.248 68.5,811.5C 67.5786,809.87 66.7453,808.203 66,806.5C 63.5417,791.169 60.375,776.003 56.5,761C 43.3282,672.967 43.3282,584.967 56.5,497C 61.0012,477.159 65.5012,457.326 70,437.5C 75.7288,422.479 80.5622,407.145 84.5,391.5C 93.7337,369.969 103.067,348.469 112.5,327C 121.375,312.755 129.875,298.255 138,283.5C 149.158,269.822 159.325,255.489 168.5,240.5C 172.452,234.714 177.285,229.714 183,225.5C 184.92,221.244 187.92,217.911 192,215.5C 192.333,214.5 192.667,213.5 193,212.5C 237.009,165.835 287.842,128.335 345.5,100C 351.952,98.229 357.952,95.5624 363.5,92C 406.041,74.7693 450.041,62.2693 495.5,54.5C 516.27,52.0202 536.937,50.0202 557.5,48.5 Z"/></g>
<g><path style="opacity:1" fill="#225a9e" d="M 2182.5,402.5 C 2182.17,402.5 2181.83,402.5 2181.5,402.5C 2159.01,401.503 2136.34,401.169 2113.5,401.5C 2113.79,399.265 2113.46,397.265 2112.5,395.5C 2111.9,392.059 2111.24,388.725 2110.5,385.5C 2108.04,366.346 2105.38,347.179 2102.5,328C 2098.84,308.75 2089.84,292.75 2075.5,280C 2062.86,272.113 2049.2,267.279 2034.5,265.5C 2024.36,264.137 2014.03,263.47 2003.5,263.5C 1824,261.317 1644.33,261.151 1464.5,263C 1451,264.943 1437.33,266.277 1423.5,267C 1411,269.364 1399.34,273.697 1388.5,280C 1384.35,283.314 1380.35,286.814 1376.5,290.5C 1367.07,304.21 1360.74,319.377 1357.5,336C 1354.14,357.741 1351.8,379.575 1350.5,401.5C 1326.5,401.5 1302.5,401.5 1278.5,401.5C 1277.64,324.333 1277.64,247.333 1278.5,170.5C 1279.5,138.338 1279.83,106.004 1279.5,73.5C 1281.74,73.7947 1283.74,73.4614 1285.5,72.5C 1287.97,71.6829 1290.64,71.1829 1293.5,71C 1589.83,69.6764 1886.17,69.1764 2182.5,69.5C 2182.5,180.5 2182.5,291.5 2182.5,402.5 Z"/></g>
<g><path style="opacity:1" fill="#6880ae" d="M 1285.5,72.5 C 1283.74,73.4614 1281.74,73.7947 1279.5,73.5C 1279.83,106.004 1279.5,138.338 1278.5,170.5C 1278.5,137.833 1278.5,105.167 1278.5,72.5C 1280.83,72.5 1283.17,72.5 1285.5,72.5 Z"/></g>
<g><path style="opacity:1" fill="#c1c8d9" d="M 584.5,141.5 C 590.157,140.834 595.99,140.501 602,140.5C 612.039,140.395 621.872,141.062 631.5,142.5C 615.845,141.755 600.178,141.422 584.5,141.5 Z"/></g>
<g><path style="opacity:1" fill="#fefefe" d="M 584.5,141.5 C 600.178,141.422 615.845,141.755 631.5,142.5C 678.76,146.916 721.76,162.582 760.5,189.5C 771.261,198.071 781.928,206.904 792.5,216C 810.57,234.678 827.07,254.512 842,275.5C 848.972,287.28 855.805,299.113 862.5,311C 877.423,337.691 888.923,365.858 897,395.5C 898.316,396.974 899.316,398.641 900,400.5C 903.036,413.979 906.37,427.312 910,440.5C 918.144,479.122 923.81,518.122 927,557.5C 929.024,610.682 928.857,663.849 926.5,717C 922.022,750.014 916.522,782.847 910,815.5C 904.511,833.788 899.178,852.121 894,870.5C 888.489,882.697 883.655,895.197 879.5,908C 874.177,921.146 868.177,933.979 861.5,946.5C 860.758,947.287 859.925,947.953 859,948.5C 831.718,1001.45 792.884,1043.95 742.5,1076C 735.286,1079.29 728.286,1082.96 721.5,1087C 704.734,1094.59 687.401,1100.59 669.5,1105C 655.949,1106.89 642.449,1109.05 629,1111.5C 607.505,1114.08 586.005,1114.08 564.5,1111.5C 530.243,1107.35 497.576,1098.02 466.5,1083.5C 434.694,1065.87 406.86,1043.21 383,1015.5C 373.426,1005.43 364.759,994.763 357,983.5C 328.099,939.505 306.099,892.172 291,841.5C 283.643,810.717 277.31,779.717 272,748.5C 265.633,678.859 264.967,609.193 270,539.5C 274.803,460.227 294.803,385.227 330,314.5C 356.449,263.719 392.615,221.219 438.5,187C 482.633,158.351 531.3,143.184 584.5,141.5 Z"/></g>
<g><path style="opacity:1" fill="#909ebf" d="M 2003.5,263.5 C 2014.03,263.47 2024.36,264.137 2034.5,265.5C 2023.97,265.53 2013.64,264.863 2003.5,263.5 Z"/></g>
<g><path style="opacity:1" fill="#003593" d="M 2112.5,395.5 C 2113.46,397.265 2113.79,399.265 2113.5,401.5C 2136.34,401.169 2159.01,401.503 2181.5,402.5C 2158.5,402.5 2135.5,402.5 2112.5,402.5C 2112.5,400.167 2112.5,397.833 2112.5,395.5 Z"/></g>
<g><path style="opacity:1" fill="#b3bcd1" d="M 2110.5,385.5 C 2111.24,388.725 2111.9,392.059 2112.5,395.5C 2112.5,397.833 2112.5,400.167 2112.5,402.5C 2135.5,402.5 2158.5,402.5 2181.5,402.5C 2181.83,402.5 2182.17,402.5 2182.5,402.5C 2159.01,403.498 2135.34,403.831 2111.5,403.5C 2111.03,397.509 2110.7,391.509 2110.5,385.5 Z"/></g>
<g><path style="opacity:1" fill="#003092" d="M 854.5,432.5 C 854.5,432.833 854.5,433.167 854.5,433.5C 854.167,433.5 853.833,433.5 853.5,433.5C 829.5,433.5 805.5,433.5 781.5,433.5C 781.823,439.69 781.49,445.69 780.5,451.5C 780.5,445.167 780.5,438.833 780.5,432.5C 805.167,432.5 829.833,432.5 854.5,432.5 Z"/></g>
<g><path style="opacity:1" fill="#225a9e" d="M 1497.5,432.5 C 1505.65,433.493 1513.98,433.826 1522.5,433.5C 1522.18,438.363 1522.51,443.03 1523.5,447.5C 1525.38,465.086 1529.04,482.419 1534.5,499.5C 1538.17,506.674 1543.17,512.841 1549.5,518C 1555.81,521.634 1562.47,524.634 1569.5,527C 1588.27,531.145 1607.27,533.478 1626.5,534C 1703.5,534.771 1780.5,534.438 1857.5,533C 1874.24,531.952 1890.57,528.785 1906.5,523.5C 1910.42,521.292 1914.25,518.959 1918,516.5C 1920.04,511.746 1923.04,507.746 1927,504.5C 1929.6,496.859 1932.1,489.192 1934.5,481.5C 1937.42,465.075 1940.09,448.742 1942.5,432.5C 1964.99,433.497 1987.66,433.831 2010.5,433.5C 2010.5,561.167 2010.5,688.833 2010.5,816.5C 1987.5,816.5 1964.5,816.5 1941.5,816.5C 1942.08,812.351 1941.41,808.684 1939.5,805.5C 1939.2,785.557 1935.7,766.224 1929,747.5C 1923.17,733.674 1913.34,723.841 1899.5,718C 1887.95,714.694 1876.28,712.194 1864.5,710.5C 1817.17,709.069 1769.67,708.402 1722,708.5C 1694,708.5 1666.16,708.833 1638.5,709.5C 1624.5,709.333 1610.5,709.5 1596.5,710C 1584.42,712.913 1572.42,716.246 1560.5,720C 1551.29,724.523 1543.79,731.023 1538,739.5C 1535.21,743.412 1533.21,747.746 1532,752.5C 1530.45,761.016 1528.45,769.35 1526,777.5C 1524.68,790.807 1523.85,804.14 1523.5,817.5C 1499.17,817.5 1474.83,817.5 1450.5,817.5C 1450.17,736.998 1450.5,656.665 1451.5,576.5C 1452.5,529.003 1452.83,481.336 1452.5,433.5C 1461.35,433.826 1470.02,433.493 1478.5,432.5C 1484.83,431.167 1491.17,431.167 1497.5,432.5 Z"/></g>
<g><path style="opacity:1" fill="#002e92" d="M 1497.5,432.5 C 1506.17,432.5 1514.83,432.5 1523.5,432.5C 1523.5,437.5 1523.5,442.5 1523.5,447.5C 1522.51,443.03 1522.18,438.363 1522.5,433.5C 1513.98,433.826 1505.65,433.493 1497.5,432.5 Z"/></g>
<g><path style="opacity:1" fill="#003192" d="M 413.5,434.5 C 389.908,433.511 366.241,433.177 342.5,433.5C 342.833,557.668 342.5,681.668 341.5,805.5C 341.5,681.167 341.5,556.833 341.5,432.5C 365.857,431.843 389.857,432.51 413.5,434.5 Z"/></g>
<g><path style="opacity:1" fill="#235b9f" d="M 413.5,434.5 C 414.76,437.796 415.76,441.296 416.5,445C 416.06,470.14 421.227,493.973 432,516.5C 435.5,518.667 438.333,521.5 440.5,525C 448.918,528.94 457.584,532.273 466.5,535C 484.094,537.163 501.76,538.497 519.5,539C 586.193,540.925 652.859,540.258 719.5,537C 730.99,534.782 741.99,531.115 752.5,526C 758.844,520.143 763.844,513.309 767.5,505.5C 773.559,487.744 777.892,469.744 780.5,451.5C 781.49,445.69 781.823,439.69 781.5,433.5C 805.5,433.5 829.5,433.5 853.5,433.5C 853.5,556.833 853.5,680.167 853.5,803.5C 838.657,803.171 823.99,803.504 809.5,804.5C 809.5,804.833 809.5,805.167 809.5,805.5C 800.348,806.494 791.015,806.827 781.5,806.5C 779.879,781.637 775.713,757.303 769,733.5C 765.814,729.127 763.147,724.46 761,719.5C 756.214,716.382 751.714,712.882 747.5,709C 741.744,707.566 736.41,705.232 731.5,702C 722.852,700.836 714.185,699.836 705.5,699C 631.833,697.005 558.167,697.005 484.5,699C 467.989,701.096 452.655,706.429 438.5,715C 432.335,720.994 427.669,727.994 424.5,736C 419.589,756.208 416.589,776.708 415.5,797.5C 414.833,799.5 414.167,801.5 413.5,803.5C 410.497,804.085 407.497,804.752 404.5,805.5C 383.337,806.828 362.337,806.828 341.5,805.5C 342.5,681.668 342.833,557.668 342.5,433.5C 366.241,433.177 389.908,433.511 413.5,434.5 Z"/></g>
<g><path style="opacity:1" fill="#004998" d="M 853.5,433.5 C 853.833,433.5 854.167,433.5 854.5,433.5C 854.5,557.167 854.5,680.833 854.5,804.5C 839.5,804.5 824.5,804.5 809.5,804.5C 823.99,803.504 838.657,803.171 853.5,803.5C 853.5,680.167 853.5,556.833 853.5,433.5 Z"/></g>
<g><path style="opacity:1" fill="#8b9abc" d="M 854.5,432.5 C 855.5,556.666 855.833,680.999 855.5,805.5C 840.167,805.5 824.833,805.5 809.5,805.5C 809.5,805.167 809.5,804.833 809.5,804.5C 824.5,804.5 839.5,804.5 854.5,804.5C 854.5,680.833 854.5,557.167 854.5,433.5C 854.5,433.167 854.5,432.833 854.5,432.5 Z"/></g>
<g><path style="opacity:1" fill="#002f92" d="M 1478.5,432.5 C 1470.02,433.493 1461.35,433.826 1452.5,433.5C 1452.83,481.336 1452.5,529.003 1451.5,576.5C 1451.5,528.5 1451.5,480.5 1451.5,432.5C 1460.5,432.5 1469.5,432.5 1478.5,432.5 Z"/></g>
<g><path style="opacity:1" fill="#014397" d="M 1942.5,432.5 C 1965.5,432.5 1988.5,432.5 2011.5,432.5C 2011.83,560.668 2011.5,688.668 2010.5,816.5C 2010.5,688.833 2010.5,561.167 2010.5,433.5C 1987.66,433.831 1964.99,433.497 1942.5,432.5 Z"/></g>
<g><path style="opacity:1" fill="#dadde7" d="M 1638.5,709.5 C 1666.16,708.833 1694,708.5 1722,708.5C 1769.67,708.402 1817.17,709.069 1864.5,710.5C 1789.17,709.741 1713.84,709.408 1638.5,709.5 Z"/></g>
<g><path style="opacity:1" fill="#7489b3" d="M 2011.5,432.5 C 2012.5,560.666 2012.83,688.999 2012.5,817.5C 1988.5,817.5 1964.5,817.5 1940.5,817.5C 1940.76,813.4 1940.43,809.4 1939.5,805.5C 1941.41,808.684 1942.08,812.351 1941.5,816.5C 1964.5,816.5 1987.5,816.5 2010.5,816.5C 2011.5,688.668 2011.83,560.668 2011.5,432.5 Z"/></g>
<g><path style="opacity:1" fill="#013293" d="M 1300.5,852.5 C 1314.99,851.504 1329.66,851.171 1344.5,851.5C 1344.5,854.167 1344.5,856.833 1344.5,859.5C 1343.53,857.393 1343.2,855.059 1343.5,852.5C 1329.17,852.5 1314.83,852.5 1300.5,852.5 Z"/></g>
<g><path style="opacity:1" fill="#225a9e" d="M 1299.5,852.5 C 1299.83,852.5 1300.17,852.5 1300.5,852.5C 1314.83,852.5 1329.17,852.5 1343.5,852.5C 1343.2,855.059 1343.53,857.393 1344.5,859.5C 1345.86,869.425 1347.03,879.425 1348,889.5C 1350.64,899.352 1352.64,909.352 1354,919.5C 1358.27,940.558 1368.11,958.392 1383.5,973C 1396.69,981.339 1411.02,986.173 1426.5,987.5C 1433.25,989.221 1440.25,989.888 1447.5,989.5C 1474.99,990.845 1502.66,991.512 1530.5,991.5C 1597.67,992.209 1665,992.875 1732.5,993.5C 1799.5,992.709 1866.5,992.209 1933.5,992C 1960.85,991.531 1988.18,990.698 2015.5,989.5C 2032.14,988.394 2048.47,985.561 2064.5,981C 2073.65,977.346 2081.48,971.846 2088,964.5C 2095.91,952.801 2101.91,940.134 2106,926.5C 2107.63,917.035 2109.8,907.702 2112.5,898.5C 2114.36,883.21 2115.7,867.876 2116.5,852.5C 2125.17,852.5 2133.83,852.5 2142.5,852.5C 2156.83,852.5 2171.17,852.5 2185.5,852.5C 2185.5,962.833 2185.5,1073.17 2185.5,1183.5C 1881.83,1183.5 1578.17,1183.5 1274.5,1183.5C 1274.5,1114.5 1274.5,1045.5 1274.5,976.5C 1275.5,935.67 1275.83,894.67 1275.5,853.5C 1283.68,853.826 1291.68,853.492 1299.5,852.5 Z"/></g>
<g><path style="opacity:1" fill="#002f92" d="M 1299.5,852.5 C 1291.68,853.492 1283.68,853.826 1275.5,853.5C 1275.83,894.67 1275.5,935.67 1274.5,976.5C 1274.5,935.167 1274.5,893.833 1274.5,852.5C 1282.83,852.5 1291.17,852.5 1299.5,852.5 Z"/></g>
<g><path style="opacity:1" fill="#003393" d="M 2142.5,852.5 C 2156.99,851.504 2171.66,851.171 2186.5,851.5C 2186.5,962.5 2186.5,1073.5 2186.5,1184.5C 1882.17,1184.5 1577.83,1184.5 1273.5,1184.5C 1273.17,1115 1273.5,1045.66 1274.5,976.5C 1274.5,1045.5 1274.5,1114.5 1274.5,1183.5C 1578.17,1183.5 1881.83,1183.5 2185.5,1183.5C 2185.5,1073.17 2185.5,962.833 2185.5,852.5C 2171.17,852.5 2156.83,852.5 2142.5,852.5 Z"/></g>
<g><path style="opacity:1" fill="#b8c0d3" d="M 1447.5,989.5 C 1475.34,989.488 1503.01,990.155 1530.5,991.5C 1502.66,991.512 1474.99,990.845 1447.5,989.5 Z"/></g>
<g><path style="opacity:1" fill="#8999bc" d="M 1426.5,987.5 C 1433.68,987.842 1440.68,988.509 1447.5,989.5C 1440.25,989.888 1433.25,989.221 1426.5,987.5 Z"/></g>
</svg>
