<?xml version="1.0" encoding="UTF-8"?>
<!DOCTYPE svg PUBLIC "-//W3C//DTD SVG 1.1//EN" "http://www.w3.org/Graphics/SVG/1.1/DTD/svg11.dtd">
<svg xmlns="http://www.w3.org/2000/svg" version="1.1" width="2000px" height="2000px" style="shape-rendering:geometricPrecision; text-rendering:geometricPrecision; image-rendering:optimizeQuality; fill-rule:evenodd; clip-rule:evenodd" xmlns:xlink="http://www.w3.org/1999/xlink">
<g><path style="opacity:1" fill="#fefffe" d="M -0.5,-0.5 C 666.167,-0.5 1332.83,-0.5 1999.5,-0.5C 1999.5,666.167 1999.5,1332.83 1999.5,1999.5C 1332.83,1999.5 666.167,1999.5 -0.5,1999.5C -0.5,1332.83 -0.5,666.167 -0.5,-0.5 Z"/></g>
<g><path style="opacity:1" fill="#005aa4" d="M 506.5,478.5 C 607.422,471.315 702.755,490.815 792.5,537C 818.907,551.532 843.573,568.532 866.5,588C 879.029,600.863 891.862,613.363 905,625.5C 922.476,645.304 938.809,665.971 954,687.5C 997.61,757.663 1023.28,833.996 1031,916.5C 1034.66,961.792 1035.32,1007.13 1033,1052.5C 1027.27,1152.03 995.938,1242.36 939,1323.5C 855.756,1433.74 744.923,1496.24 606.5,1511C 518.883,1519.81 433.549,1509.81 350.5,1481C 229.444,1432.61 143.278,1348.45 92,1228.5C 61.4907,1151.45 47.6574,1071.45 50.5,988.5C 49.8745,896.452 69.7078,809.119 110,726.5C 181.948,594.538 292.115,514.372 440.5,486C 462.55,482.611 484.55,480.111 506.5,478.5 Z"/></g>
<g><path style="opacity:1" fill="#005aa4" d="M 1329.5,497.5 C 1538.83,497.5 1748.17,497.5 1957.5,497.5C 1957.5,596.833 1957.5,696.167 1957.5,795.5C 1936.5,795.5 1915.5,795.5 1894.5,795.5C 1892.61,775.1 1890.11,754.767 1887,734.5C 1884.42,716.516 1876.92,701.016 1864.5,688C 1855.07,680.631 1844.41,675.964 1832.5,674C 1820.87,672.669 1809.2,671.669 1797.5,671C 1637.16,669.316 1476.83,669.316 1316.5,671C 1294.59,670.532 1273.59,674.532 1253.5,683C 1240.77,690.602 1231.94,701.436 1227,715.5C 1224.22,722.964 1222.22,730.63 1221,738.5C 1217.85,757.069 1215.68,775.736 1214.5,794.5C 1193.17,794.5 1171.83,794.5 1150.5,794.5C 1149.17,696.5 1149.17,598.5 1150.5,500.5C 1154.85,500.235 1159.19,499.735 1163.5,499C 1219,498.833 1274.33,498.333 1329.5,497.5 Z"/></g>
<g><path style="opacity:1" fill="#fefffe" d="M 530.5,561.5 C 605.839,557.949 670.006,582.616 723,635.5C 755.017,670.161 780.017,709.495 798,753.5C 824.055,824.826 837.055,898.493 837,974.5C 841.592,1055.69 831.592,1135.02 807,1212.5C 788.78,1267.31 760.114,1315.64 721,1357.5C 671.687,1405.47 612.354,1429.47 543,1429.5C 479.207,1429.82 423.374,1409.32 375.5,1368C 339.065,1333.31 310.898,1292.81 291,1246.5C 275.775,1211.82 264.775,1175.82 258,1138.5C 253.588,1117.03 250.588,1095.36 249,1073.5C 244.986,1009.02 246.652,944.682 254,880.5C 261.753,814.908 282.086,753.575 315,696.5C 338.619,657.547 369.119,625.047 406.5,599C 444.604,575.686 485.937,563.186 530.5,561.5 Z"/></g>
<g><path style="opacity:1" fill="#005aa4" d="M 1329.5,820.5 C 1342.83,821.055 1356.16,821.389 1369.5,821.5C 1369.63,839.842 1372.13,857.842 1377,875.5C 1382.76,891.596 1393.93,901.763 1410.5,906C 1427.31,909.595 1444.31,911.595 1461.5,912C 1530.17,912.769 1598.84,912.436 1667.5,911C 1686.53,911.16 1704.2,906.493 1720.5,897C 1730.28,884.58 1736.12,870.413 1738,854.5C 1739.83,843.536 1741.33,832.536 1742.5,821.5C 1763.5,821.5 1784.5,821.5 1805.5,821.5C 1805.5,936.167 1805.5,1050.83 1805.5,1165.5C 1784.17,1165.5 1762.83,1165.5 1741.5,1165.5C 1740.78,1145.11 1737.62,1125.11 1732,1105.5C 1727.23,1091.73 1718.06,1082.23 1704.5,1077C 1694.42,1073.56 1684.08,1071.23 1673.5,1070C 1593.83,1068.07 1514.17,1068.07 1434.5,1070C 1421.33,1072.39 1408.66,1076.39 1396.5,1082C 1387.03,1088.15 1380.53,1096.65 1377,1107.5C 1372.01,1126.5 1369.51,1145.83 1369.5,1165.5C 1347.5,1165.5 1325.5,1165.5 1303.5,1165.5C 1303.57,1050.83 1303.9,936.166 1304.5,821.5C 1313.02,821.826 1321.35,821.493 1329.5,820.5 Z"/></g>
<g><path style="opacity:1" fill="#005aa4" d="M 313.5,821.5 C 335.177,821.167 356.844,821.5 378.5,822.5C 380.759,835.387 382.259,848.387 383,861.5C 385.209,873.795 389.209,885.461 395,896.5C 403.051,905.778 413.218,911.278 425.5,913C 429.795,913.912 434.128,914.579 438.5,915C 509.505,919.477 580.505,919.477 651.5,915C 660.408,913.142 669.074,910.475 677.5,907C 684.489,902.346 689.656,896.179 693,888.5C 701.859,867.04 706.025,844.706 705.5,821.5C 727.833,821.5 750.167,821.5 772.5,821.5C 772.5,932.5 772.5,1043.5 772.5,1154.5C 750.495,1154.57 728.495,1154.91 706.5,1155.5C 704.568,1133.47 700.735,1111.81 695,1090.5C 688.087,1076.26 676.92,1067.1 661.5,1063C 653.857,1061.81 646.191,1060.81 638.5,1060C 572.834,1058.01 507.167,1058.01 441.5,1060C 426.696,1061.45 413.03,1066.11 400.5,1074C 391.095,1084.32 385.595,1096.48 384,1110.5C 381.908,1124.83 380.075,1139.16 378.5,1153.5C 375.891,1154.23 373.224,1154.73 370.5,1155C 351.503,1155.5 332.503,1155.67 313.5,1155.5C 313.5,1044.17 313.5,932.833 313.5,821.5 Z"/></g>
<g><path style="opacity:1" fill="#005aa4" d="M 1169.5,1195.5 C 1182.83,1195.5 1196.17,1195.5 1209.5,1195.5C 1210.99,1222.79 1215.83,1249.45 1224,1275.5C 1229.23,1289.39 1238.06,1300.22 1250.5,1308C 1266.78,1314.77 1283.78,1318.44 1301.5,1319C 1470.5,1323.6 1639.5,1323.6 1808.5,1319C 1823.52,1318.27 1838.19,1315.61 1852.5,1311C 1866.33,1305.17 1876.17,1295.33 1882,1281.5C 1892.69,1254.21 1898.19,1225.87 1898.5,1196.5C 1919.49,1195.88 1940.49,1195.55 1961.5,1195.5C 1961.5,1294.83 1961.5,1394.17 1961.5,1493.5C 1689.5,1493.5 1417.5,1493.5 1145.5,1493.5C 1145.56,1394.5 1145.9,1295.5 1146.5,1196.5C 1154.35,1196.83 1162.02,1196.49 1169.5,1195.5 Z"/></g>
</svg>
